<mxfile host="65bd71144e">
    <diagram id="_JyOWXi3Ny9_LSlDVTpd" name="Page-1">
        <mxGraphModel dx="971" dy="523" grid="1" gridSize="10" guides="1" tooltips="1" connect="1" arrows="1" fold="1" page="1" pageScale="1" pageWidth="827" pageHeight="1169" math="0" shadow="0">
            <root>
                <mxCell id="0"/>
                <mxCell id="1" parent="0"/>
                <mxCell id="2" value="ZOO" style="swimlane;fontStyle=1;align=center;verticalAlign=top;childLayout=stackLayout;horizontal=1;startSize=26;horizontalStack=0;resizeParent=1;resizeParentMax=0;resizeLast=0;collapsible=1;marginBottom=0;" vertex="1" parent="1">
                    <mxGeometry x="260" y="20" width="300" height="130" as="geometry"/>
                </mxCell>
                <mxCell id="3" value="- animales: lista&#10;- cuidadores: lista&#10;- stock:stock" style="text;strokeColor=none;fillColor=none;align=left;verticalAlign=top;spacingLeft=4;spacingRight=4;overflow=hidden;rotatable=0;points=[[0,0.5],[1,0.5]];portConstraint=eastwest;" vertex="1" parent="2">
                    <mxGeometry y="26" width="300" height="54" as="geometry"/>
                </mxCell>
                <mxCell id="4" value="" style="line;strokeWidth=1;fillColor=none;align=left;verticalAlign=middle;spacingTop=-1;spacingLeft=3;spacingRight=3;rotatable=0;labelPosition=right;points=[];portConstraint=eastwest;strokeColor=inherit;" vertex="1" parent="2">
                    <mxGeometry y="80" width="300" height="8" as="geometry"/>
                </mxCell>
                <mxCell id="5" value="+ cuidar(cuidador, animal)&#10;+ tener-vacaciones(cuidador, inicio: date, tiempo: int)&#10;" style="text;strokeColor=none;fillColor=none;align=left;verticalAlign=top;spacingLeft=4;spacingRight=4;overflow=hidden;rotatable=0;points=[[0,0.5],[1,0.5]];portConstraint=eastwest;" vertex="1" parent="2">
                    <mxGeometry y="88" width="300" height="42" as="geometry"/>
                </mxCell>
                <mxCell id="6" value="" style="endArrow=diamondThin;endFill=1;endSize=24;html=1;entryX=-0.012;entryY=0.66;entryDx=0;entryDy=0;entryPerimeter=0;" edge="1" parent="1" target="3">
                    <mxGeometry width="160" relative="1" as="geometry">
                        <mxPoint x="100" y="140" as="sourcePoint"/>
                        <mxPoint x="510" y="290" as="targetPoint"/>
                        <Array as="points">
                            <mxPoint x="100" y="80"/>
                        </Array>
                    </mxGeometry>
                </mxCell>
                <mxCell id="7" value="STOCK" style="swimlane;fontStyle=1;align=center;verticalAlign=top;childLayout=stackLayout;horizontal=1;startSize=26;horizontalStack=0;resizeParent=1;resizeParentMax=0;resizeLast=0;collapsible=1;marginBottom=0;" vertex="1" parent="1">
                    <mxGeometry x="20" y="140" width="180" height="86" as="geometry"/>
                </mxCell>
                <mxCell id="8" value="+ reserva: dict of (comida, int)" style="text;strokeColor=none;fillColor=none;align=left;verticalAlign=top;spacingLeft=4;spacingRight=4;overflow=hidden;rotatable=0;points=[[0,0.5],[1,0.5]];portConstraint=eastwest;" vertex="1" parent="7">
                    <mxGeometry y="26" width="180" height="26" as="geometry"/>
                </mxCell>
                <mxCell id="9" value="" style="line;strokeWidth=1;fillColor=none;align=left;verticalAlign=middle;spacingTop=-1;spacingLeft=3;spacingRight=3;rotatable=0;labelPosition=right;points=[];portConstraint=eastwest;strokeColor=inherit;" vertex="1" parent="7">
                    <mxGeometry y="52" width="180" height="8" as="geometry"/>
                </mxCell>
                <mxCell id="10" value="+ method(type): type" style="text;strokeColor=none;fillColor=none;align=left;verticalAlign=top;spacingLeft=4;spacingRight=4;overflow=hidden;rotatable=0;points=[[0,0.5],[1,0.5]];portConstraint=eastwest;" vertex="1" parent="7">
                    <mxGeometry y="60" width="180" height="26" as="geometry"/>
                </mxCell>
                <mxCell id="11" value="1" style="text;strokeColor=none;align=center;fillColor=none;html=1;verticalAlign=middle;whiteSpace=wrap;rounded=0;" vertex="1" parent="1">
                    <mxGeometry x="200" y="50" width="60" height="30" as="geometry"/>
                </mxCell>
                <mxCell id="12" value="1" style="text;strokeColor=none;align=center;fillColor=none;html=1;verticalAlign=middle;whiteSpace=wrap;rounded=0;" vertex="1" parent="1">
                    <mxGeometry x="80" y="110" width="60" height="30" as="geometry"/>
                </mxCell>
            </root>
        </mxGraphModel>
    </diagram>
</mxfile>
